# xmcd
# Copyright (C) 1995-1998 Ti Kan
#
# Track frame offsets:
#       150
#       14844
#       28113
#       49119
#       63705
#       77157
#       87814
#       103222
#       114948
#       131691
#
# Disc length: 2024 seconds
#
# Revision: 0
# Processed by: cddbd v1.5.2PL0 Copyright (c) Steve Scherf et al.
# Submitted via: CD-Import v1.0
#
DISCID=8707e60a
DTITLE=Beck - Modern Guilt
DYEAR=2008
DGENRE=
TTITLE0=Orphans
TTITLE1=Gamma Ray
TTITLE2=Chemtrails
TTITLE3=Modern Guilt
TTITLE4=Youthless
TTITLE5=Walls
TTITLE6=Replica
TTITLE7=Soul Of A Man
TTITLE8=Profanity Prayers
TTITLE9=Volcano
EXTD=
EXTT0=
EXTT1=
EXTT2=
EXTT3=
EXTT4=
EXTT5=
EXTT6=
EXTT7=
EXTT8=
EXTT9=
PLAYORDER=
